<?xml version="1.0" encoding="UTF-8"?>
<!DOCTYPE svg PUBLIC "-//W3C//DTD SVG 1.1//EN" "http://www.w3.org/Graphics/SVG/1.1/DTD/svg11.dtd">
<svg xmlns="http://www.w3.org/2000/svg" version="1.1" width="291px" height="173px" style="shape-rendering:geometricPrecision; text-rendering:geometricPrecision; image-rendering:optimizeQuality; fill-rule:evenodd; clip-rule:evenodd" xmlns:xlink="http://www.w3.org/1999/xlink">
<g><path style="opacity:1" fill="#fdfefd" d="M -0.5,-0.5 C 96.5,-0.5 193.5,-0.5 290.5,-0.5C 290.5,57.1667 290.5,114.833 290.5,172.5C 193.5,172.5 96.5,172.5 -0.5,172.5C -0.5,114.833 -0.5,57.1667 -0.5,-0.5 Z"/></g>
<g><path style="opacity:1" fill="#75c01f" d="M 173.5,6.5 C 175.167,6.5 176.833,6.5 178.5,6.5C 178.5,50.8333 178.5,95.1667 178.5,139.5C 154.461,143.618 130.461,147.951 106.5,152.5C 105.5,108.172 105.167,63.8383 105.5,19.5C 128.372,15.5799 151.039,11.2465 173.5,6.5 Z"/></g>
<g><path style="opacity:1" fill="#147dfe" d="M 96.5,31.5 C 98.4932,65.4838 99.1599,99.8171 98.5,134.5C 78.2086,132.551 57.8753,131.217 37.5,130.5C 37.1669,105.158 37.5002,79.8246 38.5,54.5C 57.9329,46.8062 77.2662,39.1395 96.5,31.5 Z"/></g>
<g><path style="opacity:1" fill="#0b7cfd" d="M 246.5,107.5 C 245.833,107.5 245.5,107.833 245.5,108.5C 231.067,118.385 215.734,126.718 199.5,133.5C 194.797,133.437 190.13,133.771 185.5,134.5C 185.167,100.16 185.5,65.8269 186.5,31.5C 206.31,39.7417 226.31,47.4083 246.5,54.5C 246.5,72.1667 246.5,89.8333 246.5,107.5 Z"/></g>
<g><path style="opacity:1" fill="#f6fa23" d="M 246.5,112.5 C 246.511,110.983 247.177,109.816 248.5,109C 247.552,108.517 246.552,108.351 245.5,108.5C 245.5,107.833 245.833,107.5 246.5,107.5C 257.125,100.042 266.292,91.0418 274,80.5C 285.937,60.2069 281.104,45.3735 259.5,36C 244.4,30.2091 228.733,27.5425 212.5,28C 230.301,24.8462 247.635,26.5129 264.5,33C 283.658,41.1423 289.824,54.9756 283,74.5C 273.714,89.9518 261.548,102.619 246.5,112.5 Z"/></g>
<g><path style="opacity:1" fill="#fafcff" d="M 47.5,66.5 C 62.8333,66.5 78.1667,66.5 93.5,66.5C 93.5,69.5 93.5,72.5 93.5,75.5C 80.8289,75.3334 68.1623,75.5001 55.5,76C 53.4732,77.3957 53.1398,79.0624 54.5,81C 65.8214,81.8661 77.1547,82.5327 88.5,83C 95.0785,86.5612 97.2451,92.0612 95,99.5C 94.1667,103 92,105.167 88.5,106C 72.8369,106.5 57.1702,106.667 41.5,106.5C 41.5,103.833 41.5,101.167 41.5,98.5C 53.8378,98.6665 66.1712,98.4999 78.5,98C 81.8943,96.4348 82.2277,94.4348 79.5,92C 67.7385,91.4778 56.0718,90.4778 44.5,89C 43.3333,87.8333 42.1667,86.6667 41,85.5C 40.3333,81.1667 40.3333,76.8333 41,72.5C 42.4361,69.5581 44.6028,67.5581 47.5,66.5 Z"/></g>
<g><path style="opacity:1" fill="#fbfdfa" d="M 112.5,66.5 C 117.214,66.1734 121.88,66.5067 126.5,67.5C 131.158,77.4844 136.324,87.1511 142,96.5C 147.294,86.7456 152.461,76.9123 157.5,67C 162.202,66.1717 166.869,66.3384 171.5,67.5C 164.5,80.1667 157.5,92.8333 150.5,105.5C 144.612,106.807 138.779,106.807 133,105.5C 125.908,92.591 119.074,79.591 112.5,66.5 Z"/></g>
<g><path style="opacity:1" fill="#fafbff" d="M 187.5,66.5 C 192.179,66.3342 196.845,66.5008 201.5,67C 211.298,75.1293 220.798,83.6293 230,92.5C 230.5,83.8397 230.666,75.1731 230.5,66.5C 235.167,66.5 239.833,66.5 244.5,66.5C 244.5,79.8333 244.5,93.1667 244.5,106.5C 239.489,106.666 234.489,106.499 229.5,106C 220.631,97.4623 211.464,89.2956 202,81.5C 201.5,89.8267 201.334,98.16 201.5,106.5C 196.833,106.5 192.167,106.5 187.5,106.5C 187.5,93.1667 187.5,79.8333 187.5,66.5 Z"/></g>
<g><path style="opacity:1" fill="#1a7efc" d="M 245.5,113.5 C 246.489,118.975 246.822,124.642 246.5,130.5C 236.326,131.105 226.326,131.105 216.5,130.5C 226.66,125.59 236.326,119.923 245.5,113.5 Z"/></g>
<g><path style="opacity:1" fill="#cee432" d="M 245.5,108.5 C 246.552,108.351 247.552,108.517 248.5,109C 247.177,109.816 246.511,110.983 246.5,112.5C 245.833,112.5 245.5,112.833 245.5,113.5C 236.326,119.923 226.66,125.59 216.5,130.5C 189.775,143.742 161.775,153.409 132.5,159.5C 131.761,159.631 131.094,159.464 130.5,159C 131.833,158.667 133.167,158.333 134.5,158C 135.598,157.23 135.598,156.397 134.5,155.5C 157.037,150.457 178.703,143.123 199.5,133.5C 215.734,126.718 231.067,118.385 245.5,108.5 Z"/></g>
<g><path style="opacity:1" fill="#7ab96c" d="M 77.5,163.5 C 79.9686,164.317 82.6353,164.817 85.5,165C 78.8656,165.823 78.8656,166.323 85.5,166.5C 65.9034,168.969 46.57,167.136 27.5,161C 9.01201,154.846 1.84534,142.346 6,123.5C 8.5419,117.635 11.8752,112.301 16,107.5C 13.755,111.99 11.4216,116.657 9,121.5C 5.03533,138.403 11.202,149.903 27.5,156C 43.6628,161.741 60.3294,164.241 77.5,163.5 Z"/></g>
<g><path style="opacity:1" fill="#a1cf52" d="M 134.5,155.5 C 135.598,156.397 135.598,157.23 134.5,158C 133.167,158.333 131.833,158.667 130.5,159C 131.094,159.464 131.761,159.631 132.5,159.5C 117.194,163.375 101.528,165.708 85.5,166.5C 78.8656,166.323 78.8656,165.823 85.5,165C 82.6353,164.817 79.9686,164.317 77.5,163.5C 96.7191,162.326 115.719,159.659 134.5,155.5 Z"/></g>
</svg>
